<svg width="819" height="804" viewBox="0 0 819 804" fill="none" xmlns="http://www.w3.org/2000/svg">
<path fill-rule="evenodd" clip-rule="evenodd" d="M284.02 279.5C224.328 278.566 197.5 101.5 284.02 10C201.5 48.5 134.636 121.224 152.02 336.5C126.52 377 64 260.5 102 132C28.5 197 53 349 80.0195 477C50 519.5 20.7369 360.5 13.9999 388.5C-17.1586 518 129.5 794.5 407 794.5C684.5 794.5 828.5 541.5 806.5 388.5C802.401 359.994 769 519.5 738.98 477C766 349 788 197 714.5 132C752.5 260.5 692.48 377 666.98 336.5C684.364 121.224 617.5 48.5 534.98 10C621.5 101.5 594.672 278.566 534.98 279.5C436.974 239.756 382.026 246.151 284.02 279.5ZM298.5 660.318C335 660.318 360.884 625.566 367.5 546.5C374.152 467.001 358 423 318 420.641C278 418.281 252.23 448 245 535C237.77 622 262 660.318 298.5 660.318ZM520.5 660.318C480.5 660.318 458.116 625.566 451.5 546.5C444.848 467.001 461 423 501 420.641C541 418.281 564.187 447 571.5 535C578.813 623 560.5 660.318 520.5 660.318Z" fill="#CD1818" stroke="#CD1818" stroke-width="19" stroke-linejoin="round"/>
</svg>
